<svg xmlns="http://www.w3.org/2000/svg" width="23" height="23" viewBox="0 0 23 23">
  <path id="_001-date" data-name="001-date" d="M20.281,14.266V5.156a1.721,1.721,0,0,0-1.719-1.719H17.445V4.3a.859.859,0,0,1-1.719,0V3.438h-3.91V4.3a.859.859,0,0,1-1.719,0V3.438H6.23V4.3a.859.859,0,0,1-1.719,0V3.438H3.438A1.721,1.721,0,0,0,1.719,5.156V18.563a1.721,1.721,0,0,0,1.719,1.719H18.563a1.721,1.721,0,0,0,1.719-1.719.859.859,0,0,1,1.719,0A3.441,3.441,0,0,1,18.563,22H3.438A3.441,3.441,0,0,1,0,18.563V5.156A3.441,3.441,0,0,1,3.438,1.719H4.512V.859a.859.859,0,0,1,1.719,0v.859H10.1V.859a.859.859,0,0,1,1.719,0v.859h3.91V.859a.859.859,0,0,1,1.719,0v.859h1.117A3.441,3.441,0,0,1,22,5.156v9.109a.859.859,0,0,1-1.719,0ZM6.23,9.023a.859.859,0,1,0-.859.859A.859.859,0,0,0,6.23,9.023Zm7.477,0a.859.859,0,1,0-.859.859A.859.859,0,0,0,13.707,9.023Zm2.879.859a.859.859,0,1,0-.859-.859A.859.859,0,0,0,16.586,9.883ZM6.23,12.762a.859.859,0,1,0-.859.859A.859.859,0,0,0,6.23,12.762Zm-.859,2.879a.859.859,0,1,0,.859.859A.859.859,0,0,0,5.371,15.641Zm4.6-6.617a.859.859,0,1,0-.859.859A.859.859,0,0,0,9.969,9.023Zm0,3.738a.859.859,0,1,0-.859.859A.859.859,0,0,0,9.969,12.762Zm-.859,2.879a.859.859,0,1,0,.859.859A.859.859,0,0,0,9.109,15.641Zm7.221-.483.982-.725a.454.454,0,0,0-.25-.812H15.844a.388.388,0,0,1-.4-.246l-.383-1.18a.426.426,0,0,0-.809,0l-.383,1.18a.387.387,0,0,1-.4.246H12.244a.454.454,0,0,0-.25.812l.981.725a.422.422,0,0,1,.155.473L12.746,16.8a.425.425,0,0,0,.654.473l1-.725a.426.426,0,0,1,.5,0l1,.725a.425.425,0,0,0,.654-.473l-.383-1.172a.422.422,0,0,1,.155-.473Zm0,0" transform="translate(0.5 0.5)" fill="#014181" stroke="#014181" stroke-width="1"/>
</svg>
