<svg xmlns="http://www.w3.org/2000/svg" width="442.537" height="394.689" viewBox="0 0 442.537 394.689">
  <g id="Group_190" data-name="Group 190" transform="translate(-614.967 -1371.145)">
    <g id="Group_189" data-name="Group 189" transform="translate(615 1371.145)">
      <path id="Path_1478" data-name="Path 1478" d="M.936,36.835,442.5-18.345l-.8,201.287L.936,181.891Z" transform="translate(0 211.748)" fill="#2dc2d6"/>
      <path id="Path_1470" data-name="Path 1470" d="M-777.935,753.675H-904.107l-17.34,40.52,25.494,12.793,108.73-3.139,12.238-40.2Z" transform="translate(1149.234 -629.932)" fill="#014181"/>
      <path id="Path_1471" data-name="Path 1471" d="M-1026.362,966.678a27.292,27.292,0,0,1-5.485-.574,24.564,24.564,0,0,1-10.578-5.026,18.888,18.888,0,0,1-6.943-13.746l-.09-1.287.209-1.27a34.224,34.224,0,0,1,1.208-4.586,64.9,64.9,0,0,1-8.118-5.164,88.708,88.708,0,0,1-12.944-11.756,81.393,81.393,0,0,1-9.4-12.709,99.413,99.413,0,0,1-5.753-11.136,56.642,56.642,0,0,1-3.171-8.43c-.123-.442-.22-.793-.3-1.07l-.106-.148-.526-1.7a18.946,18.946,0,0,1,.5-12.147,17.241,17.241,0,0,1,8.965-10.267,14.6,14.6,0,0,1,6.2-1.372,17.419,17.419,0,0,1,9.851,3.275c3.88,2.622,7.067,7.029,10.319,14.277l.085.2c.233.548.917,2.025,2.873,5.743a43.386,43.386,0,0,0,5.3,7.616,40.492,40.492,0,0,0,8.194,7.183,19.593,19.593,0,0,0,1.721,1.043c2-5,4.159-10.274,6.45-15.76,2.493-5.968,5.05-12.008,7.643-18.048-.153.288-.317.569-.491.849a15,15,0,0,1-10.628,6.8,12.428,12.428,0,0,1-1.944.149,30.983,30.983,0,0,1-7.424-1.253,63.832,63.832,0,0,1-11.041-3.99,58.131,58.131,0,0,1-11.764-7.26,28.941,28.941,0,0,1-9.813-13.735c-1.342-3.954-1.245-8.652.307-15.212a70.487,70.487,0,0,1,7.065-17.4,123.176,123.176,0,0,1,13.321-19.169,113.183,113.183,0,0,1,21.33-19.458,150.954,150.954,0,0,1,29.509-16.108,164.885,164.885,0,0,1,38.969-10.425,157.588,157.588,0,0,1,21.489-1.67,89.09,89.09,0,0,1,10.894.626c9.083,1.129,16.469,3.1,22.585,6.034a43.8,43.8,0,0,1,15.09,11.241,47.929,47.929,0,0,1,6.935,10.733,25.005,25.005,0,0,1,2.067,5.092c.33,1.206.559,2.181.713,3.027a63.859,63.859,0,0,1,1.331,18.351,43.215,43.215,0,0,1,10.07-4.291l.126-.033a16.829,16.829,0,0,1,4.325-.527,28.652,28.652,0,0,1,5.54.607,42.031,42.031,0,0,1,9.533,3.2,53.137,53.137,0,0,1,9.274,5.6,33.8,33.8,0,0,1,7.792,8.135q1.153-1.51,2.353-2.974A88.8,88.8,0,0,1-816.7,801.467a56.071,56.071,0,0,1,20.178-9.513,37.467,37.467,0,0,1,8.778-.985c1.3,0,2.663.058,4.041.173a51.184,51.184,0,0,1,13.144,2.893,46.354,46.354,0,0,1,12.221,6.655,33.192,33.192,0,0,1,9.569,11.286,12.025,12.025,0,0,1,.935,9.118,12.486,12.486,0,0,1-3.352,5.454c.118.162.235.326.348.489l6.811-9.177c1.786-4.636,3.4-8.685,5-12.566,2.947-7.136,6.019-14.152,9.127-20.848s6.026-12.693,8.666-17.836a119.6,119.6,0,0,1,7.761-13.34c2.055-2.958,6.314-9.095,13.426-9.095h.477l.547.045A32.355,32.355,0,0,1-687.17,747.6a39.662,39.662,0,0,1,8.852,6.048,28.618,28.618,0,0,1,6.231,7.843c4.284,8.249.212,14.083-1.139,15.674l-.206.244-.221.232a115.76,115.76,0,0,0-11.566,14.675c-3.024,4.446-6.007,9.146-8.9,14.034a14.337,14.337,0,0,1,2.293-.558,15.792,15.792,0,0,1,2.49-.2,16.875,16.875,0,0,1,7.946,2.037,21.921,21.921,0,0,1,6.959,5.949,27.383,27.383,0,0,1,4.218,7.7l.655,1.833-.018,1.947c-.032,3.422-1.477,6.408-4.312,11.056-1.894,3.105-4.362,6.863-7.335,11.169s-6.308,8.867-9.918,13.565c-3.659,4.76-7.355,9.283-10.986,13.447a121.59,121.59,0,0,1-10.976,11.2c-4.659,4.109-8.6,6.413-12.391,7.251l-.326.07-.328.053a13.858,13.858,0,0,1-2.129.165h-.083a36.54,36.54,0,0,1-4.607.274A25.663,25.663,0,0,1-741,891.948a28.643,28.643,0,0,1-8.2-4.436q-.4-.3-.805-.628c-2.063,2.133-4.079,4.067-6.023,5.778-4.691,4.127-8.817,6.357-12.988,7.02a14,14,0,0,1-2.146.167h-.063c-1.3.175-2.7.293-4.247.362-.318.012-.627.019-.937.019a24.232,24.232,0,0,1-7.611-1.278,29.985,29.985,0,0,1-8.118-4.3q-.929-.673-1.839-1.46-2.828,2.9-5.594,5.5c-5.913,5.562-10.8,8.9-15.388,10.5l-.922.32-.963.155a30.677,30.677,0,0,1-4.8.363q-1.188,0-2.453-.083a29.184,29.184,0,0,1-9.087-2.181,36.41,36.41,0,0,1-9.126-5.591,39.978,39.978,0,0,1-4.94-4.829c-3.206,3.558-6.347,6.8-9.341,9.628a89.921,89.921,0,0,1-8.726,7.389c-3.811,2.772-7.09,4.3-10.329,4.814a50.9,50.9,0,0,1-7.676.491h-.144a57.015,57.015,0,0,1-9.929-.922,43.841,43.841,0,0,1-11.4-3.742,32.563,32.563,0,0,1-11.16-8.938l-.265-.341a50.115,50.115,0,0,1-4.683-7.55l-.122-.246s-.334-.765-.44-1.026q-4.177,5.452-8.616,10.588a189.639,189.639,0,0,1-18.789,18.991,122.06,122.06,0,0,1-19.757,14.172,62.533,62.533,0,0,1-20.812,7.672,120.469,120.469,0,0,1-12.812,1.373c-1.366.069-2.722.108-4.051.123-.306.744-1.162,2.868-1.162,2.868l-.441.736c-.324.542-.675,1.177-1.038,1.888a6.942,6.942,0,0,0-.363.78l-.173.549-.224.51a15.532,15.532,0,0,1-11.452,8.973A24.619,24.619,0,0,1-1026.362,966.678Zm95.946-171.039a16.425,16.425,0,0,1,1.43,4.974c.353,2.969.064,8.7-5.816,13.814l-.252.214a38.451,38.451,0,0,0-6.168,7.083c-2.775,3.822-5.809,8.458-9.022,13.777-3.259,5.405-6.668,11.46-10.13,17.995-3.532,6.659-7.117,13.588-10.656,20.6q-2.32,4.593-4.6,9.262a238.769,238.769,0,0,0,20.123-16.324,194.548,194.548,0,0,0,20.119-21.1,129.466,129.466,0,0,0,13.953-20.49,51.386,51.386,0,0,0,5.881-16.37c.648-4.46-.4-6.59-1.239-7.8-1.372-1.977-4.486-3.64-9-4.8A34.67,34.67,0,0,0-930.416,795.639Zm-88.072,68.328a15.1,15.1,0,0,1-.693,3.354q.751-1.745,1.5-3.483Zm5.626-11.139c3-6.789,6.021-13.463,9.011-19.917,3.568-7.7,6.978-14.747,10.158-20.987a136.03,136.03,0,0,0-14.817,10.139,96.787,96.787,0,0,0-13.318,12.5,38.734,38.734,0,0,0-6.745,10.322,11.316,11.316,0,0,0-.439,1.292Z" transform="translate(1101.029 -632.663)" fill="#f1f1f1"/>
      <g id="Group_184" data-name="Group 184" transform="translate(0.967 101.856)">
        <path id="Path_1473" data-name="Path 1473" d="M-914.525,827.76a68.149,68.149,0,0,0,4.272-6.9,51.6,51.6,0,0,0,2.981-6.437,40.492,40.492,0,0,0-8.923,9.255,90.706,90.706,0,0,0-7.817,13,12.488,12.488,0,0,0,4.615-3.119A40.983,40.983,0,0,0-914.525,827.76Z" transform="translate(1147.529 -714.324)" fill="#014181"/>
        <path id="Path_1474" data-name="Path 1474" d="M-657.469,821.045a38.3,38.3,0,0,0-5.9-10.754,32.878,32.878,0,0,0-10.133-8.708,104.115,104.115,0,0,1,10.209-12.942l.441-.462.413-.488c6.483-7.644,7.444-18.293,2.508-27.792a39.9,39.9,0,0,0-8.545-10.867,50.539,50.539,0,0,0-11.267-7.73,43.348,43.348,0,0,0-15.868-4.542c-.633-.055-1.312-.086-1.984-.086h0c-12.836,0-19.79,10.015-22.407,13.786a130.321,130.321,0,0,0-8.517,14.594c-2.7,5.272-5.681,11.4-8.85,18.216-2.44,5.258-4.854,10.7-7.2,16.232a46.988,46.988,0,0,0-4.674-4.07,57.306,57.306,0,0,0-15.106-8.234,62.2,62.2,0,0,0-15.987-3.519c-1.68-.141-3.346-.212-4.955-.212a48.5,48.5,0,0,0-11.358,1.3,66.929,66.929,0,0,0-24.07,11.323,98.015,98.015,0,0,0-12.355,10.792c-.27-.211-.542-.418-.818-.624a64.213,64.213,0,0,0-11.195-6.752,53.038,53.038,0,0,0-12-4.007,39.586,39.586,0,0,0-7.695-.82,29.312,29.312,0,0,0-4.195.3q-.377-2.582-.94-5.073c-.208-1.093-.49-2.285-.871-3.674a35.5,35.5,0,0,0-2.786-7.026,59.283,59.283,0,0,0-8.314-12.873,54.571,54.571,0,0,0-18.811-14.163c-7.207-3.457-15.7-5.755-25.979-7.032a99.9,99.9,0,0,0-12.242-.709,167.838,167.838,0,0,0-22.882,1.758l-.12.017-.12.018a175.894,175.894,0,0,0-41.563,11.152,161.855,161.855,0,0,0-31.649,17.3,124.115,124.115,0,0,0-23.389,21.375,133.881,133.881,0,0,0-14.5,20.907,81.044,81.044,0,0,0-8.111,20.128c-1.275,5.383-2.656,13.413-.042,21.191q.147.442.3.878l-.049.023a28.432,28.432,0,0,0-14.673,16.515,30.068,30.068,0,0,0-.652,19.056l1.052,3.407.025.038a69.275,69.275,0,0,0,3.477,9.113,108.873,108.873,0,0,0,6.334,12.267A92.228,92.228,0,0,0-1074.826,934a99.635,99.635,0,0,0,14.552,13.232q1.113.832,2.268,1.63l-.019.115.182,2.57a29.97,29.97,0,0,0,10.985,21.492,35.386,35.386,0,0,0,15.226,7.227,38.291,38.291,0,0,0,7.711.8,35.459,35.459,0,0,0,7.508-.8,26.673,26.673,0,0,0,19.188-15.308l.451-1.039c3.689-.265,7.542-.716,11.494-1.343a73.416,73.416,0,0,0,24.481-8.953,133.19,133.19,0,0,0,21.556-15.445,199.819,199.819,0,0,0,19.289-19.4,43.065,43.065,0,0,0,12.844,9.527,54.8,54.8,0,0,0,14.221,4.658,68.276,68.276,0,0,0,11.863,1.093h.174c1.491,0,2.853-.04,4.121-.1,7.8-.159,12.433-2.672,12.433-2.672a78.48,78.48,0,0,0,7.845-4.613,100.37,100.37,0,0,0,9.826-8.3q1.181-1.112,2.384-2.3a45,45,0,0,0,9.351,5.281,40.188,40.188,0,0,0,12.525,2.974c1.066.069,2.131.1,3.162.1a41.686,41.686,0,0,0,6.523-.5l1.927-.306,1.844-.643c5.93-2.066,11.9-6,18.737-12.348a36.955,36.955,0,0,0,5.16,2.166,35.158,35.158,0,0,0,11.049,1.832q.7,0,1.4-.029c1.633-.072,3.137-.191,4.557-.361a24.632,24.632,0,0,0,3.131-.291c6.244-.991,12.3-4.136,18.522-9.612l.233-.206A35.615,35.615,0,0,0-742,905.779a36.508,36.508,0,0,0,11.386,1.921h.089a48.355,48.355,0,0,0,5.317-.282,24.5,24.5,0,0,0,3.195-.29l.663-.1.655-.146c5.678-1.251,11.166-4.344,17.273-9.73A132.724,132.724,0,0,0-691.44,884.93c3.776-4.328,7.616-9.028,11.412-13.967,3.724-4.844,7.172-9.56,10.247-14.013,3.135-4.542,5.645-8.366,7.673-11.694,3.081-5.048,5.852-10.123,5.911-16.653l.036-3.891Zm-23.323,12.816q-2.708,4.438-7,10.653t-9.589,13.112q-5.3,6.888-10.556,12.921a110.193,110.193,0,0,1-9.971,10.189q-4.706,4.152-7.506,4.77a2.775,2.775,0,0,1-.427.034c-.083,0-.166,0-.25-.01a2.385,2.385,0,0,0-.256-.013,2.613,2.613,0,0,0-.421.034,24.339,24.339,0,0,1-3.793.262,14.679,14.679,0,0,1-4.559-.81,17.755,17.755,0,0,1-5.041-2.778,28.146,28.146,0,0,1-5.434-5.781,9.161,9.161,0,0,1-.354-4.52q-2.716,3.321-5.4,6.372a108.02,108.02,0,0,1-9.467,9.6q-4.486,3.948-7.475,4.426a2.866,2.866,0,0,1-.429.033c-.084,0-.166,0-.251-.01a2.339,2.339,0,0,0-.255-.013,2.664,2.664,0,0,0-.42.034,34.476,34.476,0,0,1-3.863.361c-.152.006-.305.009-.458.009a13.277,13.277,0,0,1-4.171-.724,19.042,19.042,0,0,1-5.124-2.764,25.732,25.732,0,0,1-5.544-5.936,9.141,9.141,0,0,1-1.517-4.191,202.669,202.669,0,0,1-14.308,15.055q-6.969,6.556-11.488,8.129a19.741,19.741,0,0,1-3.087.226q-.842,0-1.743-.058a18.3,18.3,0,0,1-5.674-1.4,25.462,25.462,0,0,1-6.334-3.937,36.259,36.259,0,0,1-6.637-7.465,18.724,18.724,0,0,1-2.879-8.246c-.446.53-.877,1.055-1.33,1.589q-4.523,5.316-9.083,10.387t-8.785,9.063c-5.7,5.385-11.1,9.678-19.246,9.7h-.111a45.959,45.959,0,0,1-8.017-.753,32.764,32.764,0,0,1-8.542-2.817,21.637,21.637,0,0,1-7.424-5.978,38.856,38.856,0,0,1-3.66-5.892,32.823,32.823,0,0,1-2.6-14.754,60.4,60.4,0,0,1,3.1-16.424c.861-2.6,1.868-5.186,3-7.748-.255.506-.487,1.007-.748,1.513a230.663,230.663,0,0,1-13.7,23.136,223.8,223.8,0,0,1-16.293,21.329,177.82,177.82,0,0,1-17.691,17.891,110.614,110.614,0,0,1-17.971,12.908,51.481,51.481,0,0,1-17.131,6.384,109.619,109.619,0,0,1-11.644,1.253q-2.257.111-4.429.112-3.12,0-6.069-.233-1.3,2.59-2.28,4.965t-1.718,4.192q-.676,1.128-1.388,2.52a15.837,15.837,0,0,0-1.057,2.468,4.863,4.863,0,0,1-3.756,2.64,13.4,13.4,0,0,1-2.866.3,16.226,16.226,0,0,1-3.276-.349,13.63,13.63,0,0,1-5.9-2.811A8.083,8.083,0,0,1-1036.01,950a36.055,36.055,0,0,1,1.209-4.2q1.033-3.146,2.813-8.028a59.7,59.7,0,0,1-15.168-8.072,77.328,77.328,0,0,1-11.35-10.293,69.915,69.915,0,0,1-8.131-10.977,87.88,87.88,0,0,1-5.168-10,46.754,46.754,0,0,1-2.629-6.909,21.056,21.056,0,0,0-1.026-3.245,8.271,8.271,0,0,1,.357-5.255,6.545,6.545,0,0,1,3.281-4.013,3.7,3.7,0,0,1,1.575-.345,6.769,6.769,0,0,1,3.7,1.383q3.057,2.066,6.484,9.7.814,1.916,3.256,6.556a53.941,53.941,0,0,0,6.634,9.594,51.091,51.091,0,0,0,10.4,9.168,32.9,32.9,0,0,0,14.387,5.3q4.349-11.253,10.025-24.851t11.734-27.5q6.052-13.909,12.144-27.063T-980.04,817.5q5.346-10.305,9.59-16.858t6.708-7.116a9.374,9.374,0,0,1,2.245-.234,21.472,21.472,0,0,1,2.777.205,41.922,41.922,0,0,1,6.711,1.488,47.752,47.752,0,0,1,6.814,2.667,21.731,21.731,0,0,1,5.423,3.569,6.854,6.854,0,0,1,2.361,4.14q.259,2.174-2.134,4.259a49.475,49.475,0,0,0-8.092,9.123q-4.476,6.167-9.533,14.549T-967.6,851.814q-5.379,10.142-10.756,20.793t-10.469,21.512q-5.092,10.865-9.674,20.62A195.337,195.337,0,0,0-971.06,898.71a250.155,250.155,0,0,0,25.344-20.129,204.7,204.7,0,0,0,21.252-22.288,139.651,139.651,0,0,0,15.123-22.254,61.767,61.767,0,0,0,7.054-19.948q1.345-9.243-3.076-15.613t-15.257-9.163a58.1,58.1,0,0,0-14.329-1.542,125.229,125.229,0,0,0-15.061,1.015,103.029,103.029,0,0,0-22.134,5.474,144.085,144.085,0,0,0-21.6,9.906,148.223,148.223,0,0,0-19.1,12.747,107.34,107.34,0,0,0-14.824,13.941,49.214,49.214,0,0,0-8.609,13.378q-2.567,6.377-.472,10.981a6.867,6.867,0,0,0,4.177,3.766l-.166.027a9.63,9.63,0,0,1,4.005,2.688,7.163,7.163,0,0,1,1.743,3.471,4.467,4.467,0,0,1-.6,3.163,4.106,4.106,0,0,1-3.042,1.76,1.489,1.489,0,0,1-.234.016,26.534,26.534,0,0,1-4.766-.924,52.625,52.625,0,0,1-9.132-3.321,46.91,46.91,0,0,1-9.542-5.9,18.094,18.094,0,0,1-6.227-8.638q-.951-2.744.581-9.207a60.482,60.482,0,0,1,6.019-14.675,111.662,111.662,0,0,1,12.14-17.432,101.8,101.8,0,0,1,19.277-17.546,139.429,139.429,0,0,1,27.366-14.911,153.353,153.353,0,0,1,36.372-9.7,145.355,145.355,0,0,1,19.86-1.549,77.6,77.6,0,0,1,9.543.542q11.734,1.458,19.2,5.043a32.9,32.9,0,0,1,11.376,8.331,36.764,36.764,0,0,1,5.537,8.576A14.849,14.849,0,0,1-891.909,792a22.766,22.766,0,0,1,.535,2.3,55.326,55.326,0,0,1,.781,19.386A108.538,108.538,0,0,1-895.84,835.9a169.214,169.214,0,0,1-6.558,16.168c.516-.982,1.03-1.966,1.588-2.942a95.152,95.152,0,0,1,10.347-14.763,74.888,74.888,0,0,1,12-11.362,36.987,36.987,0,0,1,12.124-6.27,6.183,6.183,0,0,1,1.55-.169,18.264,18.264,0,0,1,3.429.4,31.118,31.118,0,0,1,7.024,2.377,42.236,42.236,0,0,1,7.353,4.456,22.753,22.753,0,0,1,5.992,6.63,9.3,9.3,0,0,1,.68,6.963,32.864,32.864,0,0,1-3.481,8.646,79.362,79.362,0,0,1-5.975,9.042q-3.455,4.558-6.869,8.248a61.628,61.628,0,0,1-6.438,6.135q-3.025,2.443-4.517,2.675a9.981,9.981,0,0,1-2.882.4,14.368,14.368,0,0,1-2.721-.275q-3.162-.6-6.2-1.486-1.668,4.525-2.862,8.8t-1.873,8.048a47.124,47.124,0,0,0-.773,6.94,15.943,15.943,0,0,0,.583,5.276q3.1-.834,7.883-5.086t10.23-10.145q5.454-5.888,10.968-12.478t10.053-12.33q4.541-5.746,7.572-9.722t3.451-4.552a5.124,5.124,0,0,1,.869-.84c.138-.271.259-.538.4-.81a97.229,97.229,0,0,1,11.055-16.752,77.456,77.456,0,0,1,14.059-13.392,44.985,44.985,0,0,1,16.244-7.691,26.47,26.47,0,0,1,6.237-.687q1.509,0,3.131.136a40.027,40.027,0,0,1,10.331,2.277,35.221,35.221,0,0,1,9.327,5.079,22.186,22.186,0,0,1,6.5,7.658q.711,1.255-1.414,2.355a16.539,16.539,0,0,1-5.033,1.568,23.962,23.962,0,0,1-3.751.3q-.971,0-1.923-.084-2.766-.24-3.5-1.661a2.265,2.265,0,0,0-.99-.864,1.828,1.828,0,0,0-.864-.223,1.981,1.981,0,0,0-.685.128,36.593,36.593,0,0,0-13.58,6.758,83.96,83.96,0,0,0-12.888,12.184,125.458,125.458,0,0,0-11.014,14.87,115.442,115.442,0,0,0-7.983,14.644,48.685,48.685,0,0,0-3.782,11.593q-.77,4.809,1.575,5.626l.12,0q1.691,0,4.431-1.918a52.682,52.682,0,0,0,6.308-5.347q3.467-3.362,7.459-7.744t7.76-9.071q3.77-4.687,7.293-9.335t6.292-8.668a64.814,64.814,0,0,1,6.292-10.8q3.136-4.224,5.494-4.223c.046,0,.095,0,.141,0a20.749,20.749,0,0,1,7.815,2,15.1,15.1,0,0,1,4.552,3.453,7,7,0,0,1,1.739,3.982,5.6,5.6,0,0,1-.648,3.426q-10.45,16.829-15.124,26t-4.571,9.842q3.154-.5,7.951-5.182A126.989,126.989,0,0,0-758.55,863q5.2-6.451,10.131-13.453t8.546-12.178l6.736-9.077a5.783,5.783,0,0,1,.683-.223c1.921-5.038,3.9-10.085,5.989-15.152q4.369-10.573,8.938-20.419t8.476-17.447a110.35,110.35,0,0,1,7.022-12.106q3.039-4.378,4.429-4.382c.026,0,.05,0,.074,0a21.374,21.374,0,0,1,7.855,2.245,28.629,28.629,0,0,1,6.4,4.352,18.142,18.142,0,0,1,3.919,4.831q1.226,2.36.223,3.542a126.218,126.218,0,0,0-12.7,16.074q-6.562,9.648-12.674,20.5t-11.525,21.851q-5.409,11-9.377,19.807t-6.211,14.533q-2.246,5.722-1.832,6.169,2.964-.639,7.144-4.372a92.681,92.681,0,0,0,8.7-9.05q4.52-5.319,9.092-11.413t8.4-11.471q3.831-5.376,6.295-9.18t3.024-4.569a4.748,4.748,0,0,1,3.116-2.37,5.025,5.025,0,0,1,.775-.06,6.04,6.04,0,0,1,2.83.766,11.024,11.024,0,0,1,3.462,3.028,16.369,16.369,0,0,1,2.523,4.625Q-678.092,829.429-680.793,833.861Z" transform="translate(1097.621 -736.675)" fill="#014181"/>
      </g>
      <path id="Path_1475" data-name="Path 1475" d="M-917.842,812.576a16.63,16.63,0,0,1-8.63-2.481,15.37,15.37,0,0,1-6.319-6.878c-2.68-5.782-.8-11.694,4.8-15.084l.261-.157.273-.137a19.055,19.055,0,0,0,3.508-2.588c1.838-1.589,3.953-3.6,6.286-5.993,2.393-2.447,5.024-5.3,7.819-8.47,1.628-1.851,3.3-3.77,5-5.737a14.129,14.129,0,0,1-.856-10.2l.365-1.326.576-.793c1.545-2.987,4.5-5.493,9.178-7.813a91.664,91.664,0,0,1,11.47-4.6l18.852-23.367q7.645-9.554,14.745-18.354c4.765-5.9,9.13-11.18,12.974-15.683,3.936-4.609,7.391-8.41,10.265-11.295,3.957-3.97,6.722-5.878,9.493-6.541.056-.034.113-.066.169-.1.366-.209.7-.389.984-.538l.789-.412.864-.218a13.24,13.24,0,0,1,3.212-.374,19.985,19.985,0,0,1,3.295.295,34.361,34.361,0,0,1,5.745,1.495,26.2,26.2,0,0,1,5.937,2.956,13.681,13.681,0,0,1,5.346,6.392,12.352,12.352,0,0,1,.5,7.575,12.645,12.645,0,0,1-4.93,6.91l-.169.128-.176.118a25.766,25.766,0,0,0-6.029,6.3,107.453,107.453,0,0,0-7.427,12.009c-2.507,4.651-4.948,9.818-7.252,15.355q-1.587,3.81-3.112,7.684c.127.027.253.055.378.083q.506-.885,1.034-1.829c.955-1.707,1.945-3.441,2.952-5.165.113-.442.237-.872.367-1.288l.6-1.885.108-.269a43.01,43.01,0,0,1,2.366-4.886,40.669,40.669,0,0,1,3.383-5.094,38.087,38.087,0,0,1,4.257-4.64,25.244,25.244,0,0,1,5.445-3.876l.264-.131a14.388,14.388,0,0,1,6.174-1.392,15.607,15.607,0,0,1,5.181.911,27.147,27.147,0,0,1,3.38,1.457q.053-.649.163-1.306a18.676,18.676,0,0,1,4.107-8.537,28.932,28.932,0,0,1,9.314-7.183l1.236-.653,1.388-.167c2.119-.257,4.446-.5,6.913-.737q1.81-.166,3.663-.286c.556-.857,1.086-1.621,1.6-2.3.887-1.179,3.591-4.771,8.087-4.771a8.15,8.15,0,0,1,.887.048,20.849,20.849,0,0,1,5.825,1.434,29.583,29.583,0,0,1,4.736,2.416,25.644,25.644,0,0,1,4.112,3.212c.168.162.332.326.493.488.156.025.309.05.46.077l.291.054,6.519-3.373-4.527,3.793c.1.024,8.272,6.743,8.272,6.743l.312,6.71a11.3,11.3,0,0,1-1.115,5.27,9.466,9.466,0,0,1-8.812,5.17,15.365,15.365,0,0,1-2.706-.255c-.105-.006-.228-.006-.365-.006q-.508,0-1.161.037c-.563.031-1.183.071-1.854.117-1.853,2.652-3.737,5.575-5.624,8.728q-1.556,2.605-3.078,5.267a13.226,13.226,0,0,1,3.45-.456,13.675,13.675,0,0,1,1.9.134,14.506,14.506,0,0,1,5.857,2.157,14.593,14.593,0,0,1,4.367,4.4,12.245,12.245,0,0,1,1.943,7.5l-.063.9-.269.856c-.348,1.1-.932,2.317-3.017,5.568-1.36,2.12-3.1,4.644-5.175,7.5-2.035,2.8-4.329,5.845-6.817,9.034-2.529,3.243-5.063,6.293-7.534,9.064a86.545,86.545,0,0,1-7.413,7.437c-3.184,2.785-5.882,4.351-8.494,4.926l-.213.047-.217.035a9.512,9.512,0,0,1-1.492.12h-.061a25.292,25.292,0,0,1-3.087.17,17.736,17.736,0,0,1-5.526-.942,20.446,20.446,0,0,1-5.607-2.97c-.166-.119-.331-.244-.5-.372q-2.077,2.136-4.053,3.869c-3.431,3-6.419,4.537-9.406,4.836l-.2.019-.2.01c-.223.01-.459.016-.707.016a24.616,24.616,0,0,1-3.521-.288,24.041,24.041,0,0,1-5.6-1.583,27.087,27.087,0,0,1-5.96-3.449,29.806,29.806,0,0,1-5.768-5.853l-.161-.211-.146-.221a17.312,17.312,0,0,1-2.379-5.356l-14.139,11.858c-.2,1.335-.343,2.522-.424,3.553-.023.288-.036.528-.044.724l.174.243.28,1.764a13.414,13.414,0,0,1-2.215,9.756,12.8,12.8,0,0,1-8.762,5.65,15.17,15.17,0,0,1-2.384.188,16.888,16.888,0,0,1-4.867-.743,15.353,15.353,0,0,1-7.511-5.316L-876,778.477q-.858.98-1.708,1.947c-4.925,5.59-9.627,10.62-13.978,14.948a120.04,120.04,0,0,1-12.532,11.039c-4.52,3.369-8.469,5.34-12.077,6.029l-.643.122Zm54.3-35.595c.513-3.533,1.308-7.526,2.369-11.868q.157-.648.322-1.307c-1.134.309-2.259.621-3.366.936q-3.109,3.692-6.176,7.268Zm34.425-20.295c-.878,2.849-1.686,5.611-2.413,8.255l6.356-8.75-.04-.049c-1.1.123-2.351.3-3.752.52Zm44.726-23.907a22.367,22.367,0,0,1,1.841,2.5c.811-1.222,1.537-2.271,2.2-3.178.394-.542.729-1,1.035-1.4q.692-1.791,1.413-3.607.348-.871.7-1.741c-1.129.962-2.364,2.086-3.677,3.345a27.664,27.664,0,0,0-3.2,3.638C-784.208,732.5-784.307,732.645-784.395,732.779Z" transform="translate(1145.627 -655.873)" fill="#f1f1f1"/>
      <path id="Path_1476" data-name="Path 1476" d="M-871.418,719.484l-6.407,7.846q1.723-.275,3.435-.605t3.437-.6l1.722-.274q1.466-4.117,2.921-8.293t3.17-8.215q-2.084,2.45-4.15,5.014T-871.418,719.484Z" transform="translate(1161.774 -642.678)" fill="#014181"/>
      <path id="Path_1477" data-name="Path 1477" d="M-728.532,718a17.219,17.219,0,0,0,12.941-5.474h0c10.212-25.533-12.909-35.26-12.909-35.26-.637-.469-1.3-.919-1.98-1.352a37.443,37.443,0,0,0-5.961-3.046,28.412,28.412,0,0,0-7.9-1.945,15.617,15.617,0,0,0-1.643-.086c-5.335,0-9.979,2.478-13.809,7.369l-.226.021c-2.553.24-4.947.494-7.134.758l-2.775.336-2.472,1.3a38.355,38.355,0,0,0-10.389,7.641,18.111,18.111,0,0,0,.857-2.512,19.911,19.911,0,0,0-.768-12.226,21.064,21.064,0,0,0-8.17-9.93,33.786,33.786,0,0,0-7.648-3.819,42.171,42.171,0,0,0-7.034-1.824,27.421,27.421,0,0,0-4.519-.394,20.793,20.793,0,0,0-5.06.6l-1.725.436-1.578.822c-.172.09-.358.189-.557.3-3.8,1.173-7.369,3.654-11.947,8.245-3.012,3.023-6.6,6.968-10.661,11.726-3.889,4.551-8.3,9.882-13.107,15.841-4.665,5.781-9.631,11.962-14.765,18.378l-17.462,21.644c-.517.183-1,.368-1.5.551-5.494,2.152-24.216,10.835-23.255,28.933.076,1.438-.311,1.8-1.093,1.246-.349.4-.7.8-1.047,1.2-2.707,3.073-5.246,5.826-7.548,8.181-2.189,2.239-4.15,4.109-5.829,5.562a18.01,18.01,0,0,1-2.034,1.589l-.451.224-.521.315c-8.842,5.347-12.021,15.483-7.77,24.7a23.094,23.094,0,0,0,9.3,10.212,24.1,24.1,0,0,0,12.527,3.563c.125,0,.25,0,.375,0l1.307-.021,1.284-.245c4.758-.907,9.722-3.327,15.176-7.394a127.265,127.265,0,0,0,13.35-11.745c3.187-3.171,6.554-6.7,10.051-10.545l8.963,11.165,10.523,8.018q.571.211,1.156.387a24.428,24.428,0,0,0,7.071,1.07,22.9,22.9,0,0,0,3.567-.279,20.459,20.459,0,0,0,13.829-8.866,20.869,20.869,0,0,0,3.43-15.2l-.207-1.307,4.654-3.9a36.278,36.278,0,0,0,6.168,5.953,34.657,34.657,0,0,0,7.636,4.4,31.523,31.523,0,0,0,7.366,2.061,31.9,31.9,0,0,0,4.6.367c.369,0,.718-.009,1.052-.023l.407-.02.407-.04c6.083-.609,10.691-4.1,13.63-6.667l.122-.108a25.107,25.107,0,0,0,2.684,1.068,25.242,25.242,0,0,0,7.859,1.325,33.962,33.962,0,0,0,3.6-.175,17.4,17.4,0,0,0,2.27-.207l.438-.071.435-.1c3.9-.86,7.667-2.963,11.844-6.618a93.9,93.9,0,0,0,8.079-8.1c2.581-2.894,5.223-6.073,7.853-9.446,2.542-3.26,4.889-6.371,6.976-9.245,2.187-3.013,3.961-5.585,5.421-7.861,2.286-3.565,3.225-5.359,3.862-7.373l.539-1.713.123-1.792a19.728,19.728,0,0,0-3.107-12.087,22.149,22.149,0,0,0-6.646-6.687,21.873,21.873,0,0,0-2.83-1.541l.24-.367C-729.9,717.968-729.215,718-728.532,718Zm-3.073-15.384q-.687,0-1.572.048-2.275.127-5.528.408a144.72,144.72,0,0,0-8.025,12.105q-4.048,6.765-7.761,13.771t-6.947,13.7q-3.236,6.7-5.568,12.012t-3.622,8.7q-1.287,3.381-1.137,3.593,2.18-.346,5.436-3.57a93.117,93.117,0,0,0,6.845-7.681q3.587-4.453,7-9.293t5.9-8.415l4.559-6.138a5.674,5.674,0,0,1,2.15-.421,6.176,6.176,0,0,1,.854.06,6.969,6.969,0,0,1,2.812,1.026,7.039,7.039,0,0,1,2.105,2.137,4.623,4.623,0,0,1,.751,2.883,24.935,24.935,0,0,1-2.17,3.76q-1.932,3.016-4.929,7.14t-6.66,8.828q-3.669,4.7-7.216,8.681a78.313,78.313,0,0,1-6.752,6.781q-3.206,2.806-5.136,3.229a1.963,1.963,0,0,1-.3.024,1.542,1.542,0,0,1-.174-.009c-.058-.005-.114-.006-.171-.006a1.913,1.913,0,0,0-.3.023,16.291,16.291,0,0,1-2.506.162,10.152,10.152,0,0,1-3.149-.559,13.212,13.212,0,0,1-3.541-1.911,18.405,18.405,0,0,1-3.812-3.986,6.13,6.13,0,0,1-.212-2.711c-1.061,1.279-2.116,2.523-3.16,3.718a73.644,73.644,0,0,1-6.79,6.907q-3.206,2.8-5.175,3c-.114.005-.234.008-.361.008a17.46,17.46,0,0,1-2.437-.211,16.491,16.491,0,0,1-3.826-1.1,19.5,19.5,0,0,1-4.281-2.5,22.163,22.163,0,0,1-4.286-4.382,9.057,9.057,0,0,1-1.564-4.283,11.043,11.043,0,0,1,.55-4.326,18.271,18.271,0,0,1,2.087-4.276q1.373-2.1,2.938-4.116,2.334-3.078,3.97-5.751t.312-4.348l-1.27-1.327q-2.768,4.088-5.246,7.367a30.426,30.426,0,0,1-3.52,4.15q.192-.264-.086-.264a3.845,3.845,0,0,0-1.031.265,1.523,1.523,0,0,1-.509.086q-1.39,0-3.441-2.343c-1.4-1.593-1.785-3.141-1.181-4.649-.027.026-.049.054-.074.08a3.977,3.977,0,0,1-2.314,1.369,62.913,62.913,0,0,0-7.4.823l-2.355.374q-1.206.192-2.45.507-2.369,7.325-4.149,13.9t-2.785,11.744a79.414,79.414,0,0,0-1.28,8.623q-.275,3.457.482,4.515a5.883,5.883,0,0,1-1.018,4.34,5.318,5.318,0,0,1-3.68,2.41,7.665,7.665,0,0,1-1.2.094,9.277,9.277,0,0,1-2.682-.421,7.935,7.935,0,0,1-3.8-2.811l.133.1q-1.443-1.655-1.67-5.326a44.447,44.447,0,0,1,.487-8.79q.717-5.115,2.286-11.547t3.726-13.6q-4.769,1.11-9.4,2.317t-9.022,2.493q-7.623,9.1-14.851,17.31T-895.334,791.7a111.676,111.676,0,0,1-11.721,10.338q-5.315,3.963-8.973,4.664h-.13a9.133,9.133,0,0,1-4.741-1.4,7.891,7.891,0,0,1-3.328-3.534q-1.6-3.392,1.838-5.471a26.358,26.358,0,0,0,5.073-3.631q3-2.6,6.75-6.43t8.085-8.759q4.341-4.929,9.1-10.512a9.714,9.714,0,0,1-2.974-3.53,6.567,6.567,0,0,1-.365-4.887l.194-.267q.915-2.379,5.991-4.9a89.656,89.656,0,0,1,12.587-4.883l20.262-25.116q7.663-9.575,14.745-18.353t12.839-15.519q5.757-6.742,9.871-10.869t5.931-4.533l1.149-.183a6.584,6.584,0,0,1,.951-.681q.431-.243.759-.413a5.629,5.629,0,0,1,1.366-.147,12.653,12.653,0,0,1,2.055.192,26.706,26.706,0,0,1,4.483,1.172,18.524,18.524,0,0,1,4.219,2.1,6.3,6.3,0,0,1,2.511,2.84,4.777,4.777,0,0,1,.236,2.964,5.347,5.347,0,0,1-2.152,2.754,32.861,32.861,0,0,0-7.949,8.149,114.329,114.329,0,0,0-7.965,12.862q-3.955,7.339-7.576,16.038t-6.824,17.448q1.335-.062,2.543-.063,1.648,0,3.057.116a26.278,26.278,0,0,1,4.162.634q2.478.784,2.858,2.429a5.372,5.372,0,0,1,0,2.346c.945-1.559,1.908-3.174,2.893-4.866q1.49-2.471,3.187-5.509t3.457-6.024a18.528,18.528,0,0,1,.473-1.841q.275-.865.511-1.61a35.088,35.088,0,0,1,1.952-4.02,33.123,33.123,0,0,1,2.755-4.147,30.5,30.5,0,0,1,3.411-3.719,17.61,17.61,0,0,1,3.805-2.724,6.841,6.841,0,0,1,2.95-.67,8.046,8.046,0,0,1,2.672.483,18.788,18.788,0,0,1,5.414,2.966,15.748,15.748,0,0,1,3.689,3.947q1.266,2.036.552,2.738l-1.655,1.44.327-.169q-2.081,1.741-4.427,4a34.82,34.82,0,0,0-4.089,4.652,12.085,12.085,0,0,0-2.2,4.706,4.486,4.486,0,0,0,1.5,4.236,11.85,11.85,0,0,1,3.6,7.081,17.551,17.551,0,0,1-.936,7.448,32.918,32.918,0,0,1-3.611,7.283q-2.322,3.547-4.56,6.493a2.675,2.675,0,0,1-.773,1.065l.229-.036a57.451,57.451,0,0,0,5.049-5.275q2.681-3.132,5.356-6.678t5.12-7.054q2.443-3.505,4.244-6.266,1.7-2.622,2.956-4.354a15.917,15.917,0,0,1,1.468-1.881l.033-.01c.6-1.575,1.217-3.159,1.856-4.764q2.651-6.661,5.55-13.243t5.637-12.316a93.394,93.394,0,0,0-9.173,2.281q-3.814,1.2-4.568,2.374a4.962,4.962,0,0,1-2.488-2.312,6.047,6.047,0,0,1-.588-4.088,11.3,11.3,0,0,1,2.55-5.054A21.991,21.991,0,0,1-765.339,694q3.117-.376,6.714-.713t7.344-.46a49.461,49.461,0,0,1,3.251-5.108q1.324-1.759,2.046-1.758a.524.524,0,0,1,.088.006,13.257,13.257,0,0,1,3.8.927,21.94,21.94,0,0,1,3.522,1.8,17.9,17.9,0,0,1,2.89,2.25,17.1,17.1,0,0,1,2.009,2.27,24.143,24.143,0,0,1,2.875.308c.807.149,1.5.293,2.071.438l-.114.018a5.493,5.493,0,0,1,1.143,1.643,13.528,13.528,0,0,1,1.351,3.318,4.3,4.3,0,0,1-.166,3.028q-.448.917-2.013.918a7.99,7.99,0,0,1-1.4-.14A8.846,8.846,0,0,0-731.6,702.617Z" transform="translate(1143.943 -657.562)" fill="#014181"/>
      <path id="Path_1486" data-name="Path 1486" d="M1554.831,25.1h-134.7V140.608" transform="translate(-1417.167 -16.685)" fill="none" stroke="#2dc2d6" stroke-width="6"/>
    </g>
  </g>
</svg>
