<svg xmlns="http://www.w3.org/2000/svg" width="62.669" height="74.344" viewBox="0 0 62.669 74.344">
  <g id="game-developer" transform="translate(0 0.25)">
    <rect id="Rectangle_126" data-name="Rectangle 126" width="31.031" height="22.756" transform="translate(15.926 48.616)" fill="#95e0ea"/>
    <g id="Group_201" data-name="Group 201" transform="translate(0 5.175)">
      <path id="Path_1561" data-name="Path 1561" d="M131.9,352.148h-7.474a.575.575,0,0,1,0-1.15H131.9a2.3,2.3,0,0,0,2.3-2.3V331.45a2.3,2.3,0,0,0-2.3-2.3H105.45a2.3,2.3,0,0,0-2.3,2.3V348.7a2.3,2.3,0,0,0,2.3,2.3h7.474a.575.575,0,1,1,0,1.15H105.45A3.454,3.454,0,0,1,102,348.7V331.45a3.454,3.454,0,0,1,3.45-3.45H131.9a3.454,3.454,0,0,1,3.45,3.45V348.7A3.454,3.454,0,0,1,131.9,352.148Zm0,0" transform="translate(-87.339 -286.029)" fill="#014181" stroke="#014181" stroke-width="1"/>
      <path id="Path_1562" data-name="Path 1562" d="M128.949,98.448a13.149,13.149,0,0,1-12.758-9.775,3.424,3.424,0,0,1-1.962-.7.58.58,0,0,1-.228-.46V82.937a.576.576,0,0,1,.228-.459,3.415,3.415,0,0,1,1.962-.7,13.214,13.214,0,0,1,25.517,0,3.427,3.427,0,0,1,1.961.7.576.576,0,0,1,.229.46v4.575a.572.572,0,0,1-.229.459,3.426,3.426,0,0,1-1.96.7A13.152,13.152,0,0,1,128.949,98.448ZM116.548,87.5a.657.657,0,0,1,.644.435,12.063,12.063,0,0,0,23.513,0,.556.556,0,0,1,.628-.442,2.291,2.291,0,0,0,.264.03,2.253,2.253,0,0,0,1.15-.318V83.241a2.08,2.08,0,0,0-1.313-.3.683.683,0,0,1-.729-.429,12.063,12.063,0,0,0-23.513,0,.58.58,0,0,1-.627.442,2.274,2.274,0,0,0-.266-.03,2.247,2.247,0,0,0-1.15.318V87.2a2.058,2.058,0,0,0,1.314.3A.683.683,0,0,1,116.548,87.5Zm0,0" transform="translate(-97.614 -66.825)" fill="#014181" stroke="#014181" stroke-width="1"/>
      <path id="Path_1563" data-name="Path 1563" d="M70.575,284.743a.575.575,0,0,1-.575-.575V269.156a9.19,9.19,0,0,1,5.576-8.455l10.872-4.659A.575.575,0,0,1,86.9,257.1l-10.872,4.66a8.04,8.04,0,0,0-4.878,7.4v15.012A.575.575,0,0,1,70.575,284.743Zm0,0" transform="translate(-59.938 -224.373)" fill="#014181" stroke="#014181" stroke-width="1"/>
      <path id="Path_1564" data-name="Path 1564" d="M262.673,284.743a.575.575,0,0,1-.575-.575V269.156a8.038,8.038,0,0,0-4.879-7.4l-10.871-4.66a.575.575,0,1,1,.453-1.057l10.871,4.659a9.189,9.189,0,0,1,5.576,8.455v15.012a.575.575,0,0,1-.575.575Zm0,0" transform="translate(-210.64 -224.373)" fill="#014181" stroke="#014181" stroke-width="1"/>
      <path id="Path_1565" data-name="Path 1565" d="M187.175,251.984a.573.573,0,0,1-.478-.257l-4.6-6.9a.568.568,0,0,1-.1-.318v-2.025a.574.574,0,0,1,.784-.535,12.011,12.011,0,0,0,8.779,0,.576.576,0,0,1,.786.535v2.025a.568.568,0,0,1-.1.318l-4.6,6.9A.573.573,0,0,1,187.175,251.984Zm-4.025-7.648,4.025,6.037,4.025-6.037V243.3a13.146,13.146,0,0,1-8.049,0Zm8.624.173h.011Zm0,0" transform="translate(-155.84 -212.312)" fill="#014181" stroke="#014181" stroke-width="1"/>
      <path id="Path_1566" data-name="Path 1566" d="M42.924,246.861H32.575a.575.575,0,1,1,0-1.15H42.924a.575.575,0,1,1,0,1.15Zm0,0" transform="translate(-27.4 -215.568)" fill="#014181"/>
      <path id="Path_1567" data-name="Path 1567" d="M2.875,246.861H.575a.575.575,0,1,1,0-1.15h2.3a.575.575,0,1,1,0,1.15Zm0,0" transform="translate(0 -215.568)" fill="#014181"/>
      <path id="Path_1568" data-name="Path 1568" d="M334.924,246.861H324.575a.575.575,0,1,1,0-1.15h10.349a.575.575,0,1,1,0,1.15Zm0,0" transform="translate(-277.429 -215.568)" fill="#014181"/>
      <path id="Path_1569" data-name="Path 1569" d="M414.875,246.861h-2.3a.575.575,0,1,1,0-1.15h2.3a.575.575,0,0,1,0,1.15Zm0,0" transform="translate(-352.78 -215.568)" fill="#014181"/>
      <path id="Path_1570" data-name="Path 1570" d="M197.474,470.9a.575.575,0,0,1-.575-.575V465.15H191.15v5.175a.575.575,0,1,1-1.15,0v-5.75a.575.575,0,0,1,.575-.575h6.9a.575.575,0,0,1,.575.575v5.75A.575.575,0,0,1,197.474,470.9Zm0,0" transform="translate(-162.69 -402.481)" fill="#014181" stroke="#014181" stroke-width="1"/>
      <path id="Path_1571" data-name="Path 1571" d="M55.175,53.15h-4.6a.575.575,0,1,1,0-1.15h4.6a.575.575,0,1,1,0,1.15Zm0,0" transform="translate(-42.813 -49.7)" fill="#014181"/>
      <path id="Path_1572" data-name="Path 1572" d="M66.575,41.749A.575.575,0,0,1,66,41.175v-4.6a.575.575,0,1,1,1.15,0v4.6A.575.575,0,0,1,66.575,41.749Zm0,0" transform="translate(-56.513 -36)" fill="#014181"/>
      <path id="Path_1573" data-name="Path 1573" d="M23.175,93.15h-4.6a.575.575,0,1,1,0-1.15h4.6a.575.575,0,1,1,0,1.15Zm0,0" transform="translate(-15.413 -83.951)" fill="#014181"/>
      <path id="Path_1574" data-name="Path 1574" d="M34.575,81.749A.575.575,0,0,1,34,81.175v-4.6a.575.575,0,0,1,1.15,0v4.6A.575.575,0,0,1,34.575,81.749Zm0,0" transform="translate(-29.113 -70.251)" fill="#014181"/>
    </g>
    <path id="Path_1575" data-name="Path 1575" d="M134.575,111.474H134V104h3.45v4.6A2.875,2.875,0,0,1,134.575,111.474Zm0,0" transform="translate(-114.739 -89.051)" fill="#95e0ea"/>
    <path id="Path_1576" data-name="Path 1576" d="M131.15,108.624h-.575a.575.575,0,0,1-.575-.575v-7.474a.575.575,0,0,1,.575-.575h3.45a.575.575,0,0,1,.575.575v4.6A3.453,3.453,0,0,1,131.15,108.624Zm0-1.15h.011Zm0-6.324v6.324a2.3,2.3,0,0,0,2.3-2.3V101.15Zm0,0" transform="translate(-111.314 -85.626)" fill="#014181" stroke="#014181" stroke-width="0.5"/>
    <path id="Path_1577" data-name="Path 1577" d="M278,94.112V98.77a2.875,2.875,0,0,0,2.875,2.875h.575V92.52A5.718,5.718,0,0,1,278,94.112Zm0,0" transform="translate(-238.041 -79.221)" fill="#95e0ea"/>
    <path id="Path_1578" data-name="Path 1578" d="M278.025,98.791h-.575a3.454,3.454,0,0,1-3.45-3.45V90.684a.575.575,0,0,1,.518-.573,5.164,5.164,0,0,0,3.1-1.431.576.576,0,0,1,.979.41v9.124A.575.575,0,0,1,278.025,98.791Zm-2.875-7.609v4.159a2.3,2.3,0,0,0,2.3,2.3V90.28a6.4,6.4,0,0,1-2.3.9Zm0,0" transform="translate(-234.616 -75.793)" fill="#014181" stroke="#014181" stroke-width="0.5"/>
    <path id="Path_1579" data-name="Path 1579" d="M190.358,191.123a6.305,6.305,0,0,1-4.472-1.849.575.575,0,0,1,.813-.813,5.182,5.182,0,0,0,7.318,0,.575.575,0,0,1,.813.813A6.312,6.312,0,0,1,190.358,191.123Zm0,0" transform="translate(-159.023 -161.228)" fill="#014181" stroke="#014181" stroke-width="0.5"/>
    <path id="Path_1580" data-name="Path 1580" d="M154.123,32.074H134a8.624,8.624,0,0,1,8.624-8.624h5.985a17.249,17.249,0,0,0,7.228-1.588L159.873,20v6.324A5.749,5.749,0,0,1,154.123,32.074Zm0,0" transform="translate(-114.739 -17.125)" fill="#95e0ea"/>
    <path id="Path_1581" data-name="Path 1581" d="M150.7,29.225H130.575A.575.575,0,0,1,130,28.65a9.21,9.21,0,0,1,9.2-9.2h5.986a16.767,16.767,0,0,0,6.987-1.535l4.034-1.862a.576.576,0,0,1,.816.522V22.9a6.332,6.332,0,0,1-6.324,6.324Zm-19.527-1.15H150.7a5.181,5.181,0,0,0,5.175-5.175V17.474l-3.217,1.486a17.958,17.958,0,0,1-7.47,1.641H139.2a8.06,8.06,0,0,0-8.029,7.474Zm0,0" transform="translate(-111.314 -13.701)" fill="#014181" stroke="#014181" stroke-width="0.5"/>
    <path id="Path_1582" data-name="Path 1582" d="M314.283,100.913a.575.575,0,0,1-.575-.575V96.8c0-.39-.016-.777-.047-1.159a.575.575,0,1,1,1.145-.094c.033.413.052.832.052,1.253v3.534A.575.575,0,0,1,314.283,100.913Zm0,0" transform="translate(-268.575 -81.365)" fill="#263238"/>
    <path id="Path_1583" data-name="Path 1583" d="M318,132h1.725a2.875,2.875,0,0,1,2.875,2.875v3.45a2.875,2.875,0,0,1-2.875,2.875H318Zm0,0" transform="translate(-272.292 -113.027)" fill="#95e0ea"/>
    <path id="Path_1584" data-name="Path 1584" d="M316.3,138.349h-1.725a.575.575,0,0,1-.575-.575v-9.2a.575.575,0,0,1,.575-.575H316.3a3.454,3.454,0,0,1,3.45,3.45v3.45A3.454,3.454,0,0,1,316.3,138.349Zm-1.15-1.15h1.15a2.3,2.3,0,0,0,2.3-2.3v-3.45a2.3,2.3,0,0,0-2.3-2.3h-1.15Zm0,0" transform="translate(-268.867 -109.602)" fill="#014181" stroke="#014181" stroke-width="0.5"/>
    <path id="Path_1585" data-name="Path 1585" d="M90.6,141.2H88.875A2.875,2.875,0,0,1,86,138.324v-3.45A2.875,2.875,0,0,1,88.875,132H90.6Zm0,0" transform="translate(-73.639 -113.027)" fill="#95e0ea"/>
    <path id="Path_1586" data-name="Path 1586" d="M87.175,138.349H85.45A3.454,3.454,0,0,1,82,134.9v-3.45A3.454,3.454,0,0,1,85.45,128h1.725a.575.575,0,0,1,.575.575v9.2A.575.575,0,0,1,87.175,138.349Zm-1.725-9.2a2.3,2.3,0,0,0-2.3,2.3v3.45a2.3,2.3,0,0,0,2.3,2.3H86.6V129.15Zm0,0" transform="translate(-70.214 -109.602)" fill="#014181" stroke="#014181" stroke-width="0.5"/>
    <path id="Path_1587" data-name="Path 1587" d="M314.349,100.777a.575.575,0,0,1-.575-.575V96.177c0-.153-.01-.3-.021-.453l-.016-.255a.574.574,0,0,1,.545-.6.547.547,0,0,1,.6.546l.015.236c.013.175.024.351.024.529V100.2A.575.575,0,0,1,314.349,100.777Zm0,0" transform="translate(-268.641 -81.228)" fill="#014181" stroke="#014181" stroke-width="0.5"/>
    <path id="Path_1588" data-name="Path 1588" d="M114.575,19.548a.575.575,0,0,1-.575-.575V14.949A14.945,14.945,0,0,1,137.227,2.5a.575.575,0,1,1-.637.956,13.8,13.8,0,0,0-21.44,11.488v4.025a.575.575,0,0,1-.575.575Zm0,0" transform="translate(-97.614 0)" fill="#014181" stroke="#014181" stroke-width="0.5"/>
  </g>
</svg>
