<?xml version="1.0" encoding="utf-8"?>
<!-- Generator: Adobe Illustrator 21.0.0, SVG Export Plug-In . SVG Version: 6.00 Build 0)  -->
<svg version="1.1" id="Layer_1" xmlns="http://www.w3.org/2000/svg" xmlns:xlink="http://www.w3.org/1999/xlink" x="0px" y="0px"
	 viewBox="0 0 493.6 288" style="enable-background:new 0 0 493.6 288;" xml:space="preserve">
<style type="text/css">
	.st0{enable-background:new    ;}
	.st1{fill:#014181;}
	.st2{fill:#F7F7F7;}
</style>
<g id="Group_124" transform="translate(-231 -1478)">
	<g id="Group_123">
		<g class="st0">
			<path class="st1" d="M629.1,1613.9h-33.5l-20.1-33.3c-1.5-2.5-3-4.8-4.3-6.8c-1.4-2-2.8-3.7-4.2-5.1c-1.4-1.4-2.9-2.5-4.4-3.3
				c-1.5-0.8-3.2-1.1-5-1.1h-7.9v49.6h-29.2v-129.5h46.3c31.4,0,47.2,11.7,47.2,35.2c0,4.5-0.7,8.7-2.1,12.5
				c-1.4,3.8-3.3,7.3-5.9,10.3c-2.5,3.1-5.6,5.7-9.2,7.9c-3.6,2.2-7.6,4-12,5.2v0.4c1.9,0.6,3.8,1.6,5.6,2.9
				c1.8,1.4,3.6,2.9,5.2,4.7c1.7,1.8,3.3,3.7,4.8,5.8c1.5,2.1,2.9,4.1,4.2,6.1L629.1,1613.9z M549.6,1506.2v36h12.6
				c6.3,0,11.3-1.8,15.1-5.4c3.9-3.7,5.8-8.2,5.8-13.6c0-11.3-6.8-17-20.3-17H549.6z"/>
			<path class="st1" d="M721.2,1508.1h-36.9v105.8H655v-105.8h-36.8v-23.8h103V1508.1z"/>
		</g>
		<g class="st0">
			<path class="st1" d="M597.9,1767h-77.1v-129.5h29.2v105.9h48V1767z"/>
			<path class="st1" d="M693,1767h-77.7v-129.5H690v23.8h-45.5v28.8h42.4v23.7h-42.4v29.6H693V1767z"/>
		</g>
		<g id="Rectangle_32">
			<rect x="233.7" y="1483.6" class="st1" width="279.9" height="281.6"/>
		</g>
		<g class="st0">
			<path class="st2" d="M514.2,1766h-70l-20.3-63.4H322.6l-20.1,63.4H233l103.7-285h76.1L514.2,1766z M409.3,1653.3l-30.6-95.8
				c-2.3-7.2-3.8-15.7-4.8-25.6h-1.6c-0.7,8.3-2.3,16.6-5,24.8l-31,96.6H409.3z"/>
		</g>
	</g>
</g>
</svg>
