<svg xmlns="http://www.w3.org/2000/svg" width="55.718" height="70.613" viewBox="0 0 55.718 70.613">
  <g id="Group_204" data-name="Group 204" transform="translate(-227.413 -2352.52)">
    <g id="position" transform="translate(227.413 2352.52)">
      <rect id="Rectangle_125" data-name="Rectangle 125" width="5.517" height="14.05" transform="translate(25.119 43.048)" fill="#95e0ea"/>
      <g id="Group_196" data-name="Group 196" transform="translate(1.379 24.842)">
        <path id="Path_1553" data-name="Path 1553" d="M171.032,263.85h-23.17A3.862,3.862,0,0,1,144,259.989h0a3.862,3.862,0,0,1,3.862-3.862h23.17a3.862,3.862,0,0,1,3.862,3.862h0A3.862,3.862,0,0,1,171.032,263.85Z" transform="translate(-132.967 -245.645)" fill="#95e0ea"/>
        <path id="Path_1554" data-name="Path 1554" d="M376.275,180.127h-5.517A2.758,2.758,0,0,0,368,182.885h0a2.758,2.758,0,0,0,2.758,2.758h5.517a2.758,2.758,0,0,0,2.758-2.758h0A2.758,2.758,0,0,0,376.275,180.127Z" transform="translate(-326.073 -180.127)" fill="#95e0ea"/>
        <path id="Path_1555" data-name="Path 1555" d="M72.275,180.127H66.758A2.758,2.758,0,0,0,64,182.885h0a2.758,2.758,0,0,0,2.758,2.758h5.517a2.758,2.758,0,0,0,2.758-2.758h0A2.758,2.758,0,0,0,72.275,180.127Z" transform="translate(-64 -180.127)" fill="#95e0ea"/>
      </g>
      <path id="Path_1556" data-name="Path 1556" d="M159.447,10h0A15.447,15.447,0,0,0,144,25.447v12.78a5.7,5.7,0,0,0,5.7,5.7h19.492a5.7,5.7,0,0,0,5.7-5.7V25.447A15.447,15.447,0,0,0,159.447,10Z" transform="translate(-131.588 -8.621)" fill="#95e0ea"/>
      <g id="Group_197" data-name="Group 197" transform="translate(10.895 62.614)">
        <circle id="Ellipse_28" data-name="Ellipse 28" cx="3.31" cy="3.31" r="3.31" transform="translate(27.307)" fill="#95e0ea"/>
        <circle id="Ellipse_29" data-name="Ellipse 29" cx="3.31" cy="3.31" r="3.31" transform="translate(13.654)" fill="#95e0ea"/>
        <circle id="Ellipse_30" data-name="Ellipse 30" cx="3.31" cy="3.31" r="3.31" fill="#95e0ea"/>
      </g>
      <path id="Path_1557" data-name="Path 1557" d="M321.437,31.184A1.379,1.379,0,0,0,323.3,29.15l-.03-.027a1.379,1.379,0,0,0-1.834,2.06Z" transform="translate(-284.158 -24.806)" fill="#014181"/>
      <path id="Path_1558" data-name="Path 1558" d="M105.581,23.463h-5.517a4.118,4.118,0,0,0-1.379.237V16.826a16.825,16.825,0,0,0-2.241-8.4,1.379,1.379,0,0,0-2.39,1.378,14.061,14.061,0,0,1,1.872,7.017v12.78a4.326,4.326,0,0,1-4.321,4.321H72.113a4.326,4.326,0,0,1-4.321-4.321V16.826A14.076,14.076,0,0,1,87.409,3.9,1.379,1.379,0,0,0,88.5,1.361,16.834,16.834,0,0,0,65.033,16.826V23.7a4.118,4.118,0,0,0-1.379-.237H58.137a4.137,4.137,0,1,0,0,8.275h1.379v1.931a6.906,6.906,0,0,0,5.673,6.785,5.249,5.249,0,0,0,5.085,3.972h7.465V55.718H73.722a6.905,6.905,0,0,0-6.789,5.693,4.689,4.689,0,1,0,2.806.082,4.144,4.144,0,0,1,3.982-3.017H80.48v2.966a4.689,4.689,0,1,0,2.758,0V58.477H90a4.144,4.144,0,0,1,3.982,3.017,4.689,4.689,0,1,0,2.806-.082A6.905,6.905,0,0,0,90,55.718H86.014V44.427h7.43a5.25,5.25,0,0,0,5.085-3.972,6.906,6.906,0,0,0,5.673-6.785V31.738h1.379a4.137,4.137,0,1,0,0-8.275ZM68.205,67.855a1.931,1.931,0,1,1,1.931-1.931A1.933,1.933,0,0,1,68.205,67.855Zm13.654,0a1.931,1.931,0,1,1,1.931-1.931A1.933,1.933,0,0,1,81.859,67.855Zm13.654,0a1.931,1.931,0,1,1,1.931-1.931A1.933,1.933,0,0,1,95.513,67.855ZM56.758,27.6a1.381,1.381,0,0,1,1.379-1.379h5.517a1.379,1.379,0,1,1,0,2.758H58.137A1.381,1.381,0,0,1,56.758,27.6Zm5.517,6.068V31.738h1.379a4.115,4.115,0,0,0,1.613-.328,7.088,7.088,0,0,0,2.082,3.428,5.263,5.263,0,0,0-2.084,2.8A4.144,4.144,0,0,1,62.275,33.669ZM83.256,55.718H80.5V44.427h2.758Zm10.188-14.05H70.274a2.482,2.482,0,1,1,0-4.965h23.17a2.482,2.482,0,1,1,0,4.965Zm8-8a4.144,4.144,0,0,1-2.99,3.974,5.263,5.263,0,0,0-2.084-2.8,7.088,7.088,0,0,0,2.082-3.428,4.115,4.115,0,0,0,1.613.328h1.379Zm4.137-4.689h-5.517a1.379,1.379,0,0,1,0-2.758h5.517a1.379,1.379,0,1,1,0,2.758Z" transform="translate(-54 0)" fill="#014181"/>
      <path id="Path_1559" data-name="Path 1559" d="M227.49,90.431a4.783,4.783,0,1,0-6.161-4.58,1.379,1.379,0,0,0,2.758,0,2.023,2.023,0,1,1,2.469,1.975,2.316,2.316,0,0,0-1.824,2.271v2.484a1.379,1.379,0,1,0,2.758,0Z" transform="translate(-198.252 -69.889)" fill="#014181"/>
      <path id="Path_1560" data-name="Path 1560" d="M247.379,190.13a1.38,1.38,0,1,0,.975.4A1.384,1.384,0,0,0,247.379,190.13Z" transform="translate(-219.52 -163.908)" fill="#014181"/>
    </g>
    <path id="Path_1589" data-name="Path 1589" d="M55.175,53.15h-4.6a.575.575,0,1,1,0-1.15h4.6a.575.575,0,1,1,0,1.15Zm0,0" transform="translate(182.12 2302.822)" fill="#014181"/>
    <path id="Path_1590" data-name="Path 1590" d="M66.575,41.749A.575.575,0,0,1,66,41.175v-4.6a.575.575,0,1,1,1.15,0v4.6A.575.575,0,0,1,66.575,41.749Zm0,0" transform="translate(168.42 2316.522)" fill="#014181"/>
    <path id="Path_1591" data-name="Path 1591" d="M23.175,93.15h-4.6a.575.575,0,1,1,0-1.15h4.6a.575.575,0,1,1,0,1.15Zm0,0" transform="translate(209.52 2268.572)" fill="#014181"/>
    <path id="Path_1592" data-name="Path 1592" d="M34.575,81.749A.575.575,0,0,1,34,81.175v-4.6a.575.575,0,0,1,1.15,0v4.6A.575.575,0,0,1,34.575,81.749Zm0,0" transform="translate(195.82 2282.272)" fill="#014181"/>
  </g>
</svg>
