<svg xmlns="http://www.w3.org/2000/svg" width="62.554" height="70.071" viewBox="0 0 62.554 70.071">
  <g id="Group_203" data-name="Group 203" transform="translate(-627 -2395.694)">
    <g id="partnership" transform="translate(627 2398.201)">
      <path id="Path_1593" data-name="Path 1593" d="M328.472,184a.785.785,0,0,1-.343.258l-6.645,3.007a1.191,1.191,0,0,1-1.346-.286l-1.518-1.747a25.032,25.032,0,0,0-1.976,11.111l.6,11.169,5.069-4.611V189.47a2.663,2.663,0,1,1,5.327-.057v14.663a2.733,2.733,0,0,1-.859,1.976l-6.157,5.585h9.594l1.289-18.272A13.215,13.215,0,0,0,328.472,184Zm0,0" transform="translate(-271.274 -163.403)" fill="#95e0ea"/>
      <path id="Path_1594" data-name="Path 1594" d="M216.286,305.933l12.258-1.775-.373-6.759-.716,1.346-14.4,2.09,1.862.258a2.745,2.745,0,0,1,2.32,3.122,3.109,3.109,0,0,1-.945,1.718Zm0,0" transform="translate(-182.543 -260.563)" fill="#95e0ea"/>
      <path id="Path_1595" data-name="Path 1595" d="M265.183,234.617a2.69,2.69,0,0,1,.172-3.752l12.343-11.2V206.236a2.663,2.663,0,0,1,5.327,0v14.606a2.733,2.733,0,0,1-.859,1.976l-13.231,11.971a2.638,2.638,0,0,1-3.752-.172Zm0,0" transform="translate(-226.628 -180.197)" fill="#95e0ea"/>
      <path id="Path_1596" data-name="Path 1596" d="M267.138,381.2l-2.033,1.833a2.658,2.658,0,1,0,3.523,3.981l.029-.029,2.033-1.833Zm0,0" transform="translate(-226.378 -332.364)" fill="#fff"/>
      <path id="Path_1597" data-name="Path 1597" d="M329.326,164.416l8.019-3.093a.808.808,0,0,1,1,.43l.687,1.747a.98.98,0,0,1-.516,1.26l-6.644,3.007a1.192,1.192,0,0,1-1.346-.286l-1.517-1.747a.823.823,0,0,1,.086-1.174A1.654,1.654,0,0,1,329.326,164.416Zm0,0" transform="translate(-281.722 -143.934)" fill="#95e0ea"/>
      <path id="Path_1598" data-name="Path 1598" d="M335.506,395.615,336.594,377H327l-2.949,2.664.916,15.951Zm0,0" transform="translate(-277.649 -328.767)" fill="#95e0ea"/>
      <path id="Path_1599" data-name="Path 1599" d="M347.773,377v5.47l-1.116-.458a3.9,3.9,0,0,1-2.406-3.608v-1.375Zm0,0" transform="translate(-294.956 -328.767)" fill="#95e0ea"/>
      <path id="Path_1600" data-name="Path 1600" d="M25.877,395.615,26.966,377H14.25l1.088,18.615Zm0,0" transform="translate(-12.21 -328.767)" fill="#95e0ea"/>
      <path id="Path_1601" data-name="Path 1601" d="M57.051,377v5.47l1.116-.458a3.9,3.9,0,0,0,2.406-3.608v-1.375Zm0,0" transform="translate(-48.882 -328.767)" fill="#95e0ea"/>
      <path id="Path_1602" data-name="Path 1602" d="M34.324,164.416l-8.019-3.093a.809.809,0,0,0-1,.43l-.687,1.747a.98.98,0,0,0,.515,1.26l6.645,3.007a1.191,1.191,0,0,0,1.346-.286l1.518-1.747a.823.823,0,0,0-.086-1.174,1.628,1.628,0,0,0-.229-.143Zm0,0" transform="translate(-21.029 -143.934)" fill="#d3d3dd"/>
      <path id="Path_1603" data-name="Path 1603" d="M18.215,206.825a2.719,2.719,0,0,1-2.034-1.432l-7.732-14.52a2.762,2.762,0,0,1,4.84-2.664.1.1,0,0,0,.029.058l6.358,11.942.2-3.895A24.7,24.7,0,0,0,17.9,185.2l-1.518,1.747a1.148,1.148,0,0,1-1.346.286l-6.587-2.979A.784.784,0,0,1,8.105,184a13.187,13.187,0,0,0-3.036,9.336l1.289,18.272H19.074l.257-4.64Zm0,0" transform="translate(-4.318 -163.403)" fill="#95e0ea"/>
      <path id="Path_1604" data-name="Path 1604" d="M54.571,226.025a1.863,1.863,0,0,1-.4-.029l-17.641-2.577a2.719,2.719,0,0,1-2.034-1.432l-7.732-14.52A2.762,2.762,0,0,1,31.6,204.8a.1.1,0,0,0,.029.058L38.7,218.149l16.266,2.377a2.745,2.745,0,0,1,2.32,3.122,2.775,2.775,0,0,1-2.721,2.377Zm0,0" transform="translate(-22.632 -179.996)" fill="#95e0ea"/>
      <path id="Path_1605" data-name="Path 1605" d="M204.086,320.629l-2.864-.43-.773,5.47,2.835.4a2.751,2.751,0,0,0,.8-5.441Zm0,0" transform="translate(-171.747 -280.099)" fill="#fff"/>
      <path id="Path_1606" data-name="Path 1606" d="M167.826,148.321a1.5,1.5,0,0,1-2.148,0l-3.437-3.437a1.531,1.531,0,0,1,.086-2.148,1.506,1.506,0,0,1,2.062,0l2.349,2.348,5.413-5.413a.393.393,0,0,1,.114-.086,7.55,7.55,0,1,0,1.661,2.635Zm0,0" transform="translate(-136.345 -123.313)" fill="#95e0ea"/>
      <path id="Path_1607" data-name="Path 1607" d="M190.519,154.189l-6.473,6.472a1.5,1.5,0,0,1-2.148,0l-3.437-3.437a1.531,1.531,0,0,1,.086-2.148,1.506,1.506,0,0,1,2.062,0l2.349,2.348,5.413-5.413a1.53,1.53,0,0,1,2.148,2.177Zm0,0" transform="translate(-152.565 -135.654)" fill="#e9e9ea"/>
      <path id="Path_1610" data-name="Path 1610" d="M29.251,47.679s-7.762-.4-4.525,9.852h2.263a1.89,1.89,0,0,0,1.4-.63l.544-.63a1.434,1.434,0,0,1,.373-2,1.415,1.415,0,0,1,1.46-.114l.487-.573a1.482,1.482,0,0,1,1.146-.516,9.932,9.932,0,0,0,4.1-.773A3.481,3.481,0,0,0,38.731,49c0-4.582-6.873-4.554-9.479-1.318Zm0,0" transform="translate(-20.509 -44.637)" fill="#95e0ea"/>
      <path id="Path_1611" data-name="Path 1611" d="M307.328,47.679s7.761-.4,4.525,9.852H309.59a1.889,1.889,0,0,1-1.4-.63l-.544-.63a1.434,1.434,0,0,0-.373-2,1.415,1.415,0,0,0-1.46-.114l-.487-.573a1.482,1.482,0,0,0-1.146-.516,9.933,9.933,0,0,1-4.1-.773A3.481,3.481,0,0,1,297.848,49c0-4.582,6.9-4.554,9.48-1.318Zm0,0" transform="translate(-255.198 -44.637)" fill="#95e0ea"/>
      <g id="Group_202" data-name="Group 202" transform="translate(0 0)">
        <path id="Path_1615" data-name="Path 1615" d="M28.089,164.387a1.886,1.886,0,0,1-.773-.172l-6.645-3.036a1.691,1.691,0,0,1-.888-2.148l.687-1.747a1.482,1.482,0,0,1,1.919-.859l8.019,3.093a1.543,1.543,0,0,1,.888,2,1.119,1.119,0,0,1-.286.458l-1.518,1.747a1.872,1.872,0,0,1-1.4.659Zm-6.243-6.616a.1.1,0,0,0-.057.029l-.659,1.747a.253.253,0,0,0,.143.343l6.645,3.007a.4.4,0,0,0,.487-.115l1.518-1.747c.057-.057.029-.115,0-.172l-.029-.029-8.048-3.065h0Zm0,0" transform="translate(-16.856 -139.694)" fill="#014181"/>
        <path id="Path_1616" data-name="Path 1616" d="M52.767,392.047a.709.709,0,0,1-.716-.716V372.716a.716.716,0,1,1,1.432,0v18.615A.709.709,0,0,1,52.767,392.047Zm0,0" transform="translate(-44.598 -324.482)" fill="#014181"/>
        <path id="Path_1617" data-name="Path 1617" d="M52.767,378.9a.709.709,0,0,1-.716-.716v-5.47a.709.709,0,0,1,.716-.716h3.522a.709.709,0,0,1,.716.716v1.375a4.623,4.623,0,0,1-2.835,4.267l-1.116.459a.556.556,0,0,1-.286.086Zm.716-5.47V377.1l.114-.058a3.177,3.177,0,0,0,1.976-2.949v-.659Zm0,0" transform="translate(-44.598 -324.482)" fill="#014181"/>
        <path id="Path_1618" data-name="Path 1618" d="M364.564,392.047a.709.709,0,0,1-.716-.716V372.716a.716.716,0,1,1,1.432,0v18.615A.709.709,0,0,1,364.564,392.047Zm0,0" transform="translate(-311.747 -324.482)" fill="#014181"/>
        <path id="Path_1619" data-name="Path 1619" d="M343.485,379.072a1.025,1.025,0,0,1-.286-.057l-1.116-.458a4.58,4.58,0,0,1-2.835-4.267v-1.375a.709.709,0,0,1,.716-.716h3.522a.709.709,0,0,1,.716.716v5.47a.722.722,0,0,1-.716.687Zm-2.806-5.47v.659a3.177,3.177,0,0,0,1.976,2.949l.114.058V373.6Zm0,0" transform="translate(-290.669 -324.653)" fill="#014181"/>
        <path id="Path_1620" data-name="Path 1620" d="M211.954,302.333a.712.712,0,0,1-.458-1.26,2.011,2.011,0,0,0,.229-2.864,1.986,1.986,0,0,0-1.26-.687l-1.862-.257a.707.707,0,0,1-.6-.8.7.7,0,0,1,.6-.6l14.061-2.119.544-1a.716.716,0,0,1,.974-.286.668.668,0,0,1,.372.6l.373,6.759a.718.718,0,0,1-.6.745l-12.258,1.775Zm.286-5.613a3.465,3.465,0,0,1,1.2,3.952l9.994-1.46-.229-4.1Zm0,0" transform="translate(-178.211 -256.247)" fill="#014181"/>
        <path id="Path_1621" data-name="Path 1621" d="M326.279,208.239h-9.594a.709.709,0,0,1-.716-.716.783.783,0,0,1,.229-.544l6.157-5.585a1.951,1.951,0,0,0,.63-1.432V185.356a1.933,1.933,0,0,0-3.866-.029v13.46a.783.783,0,0,1-.229.544l-5.069,4.611a.719.719,0,0,1-1-.057.631.631,0,0,1-.172-.43l-.6-11.169a25.621,25.621,0,0,1,2.033-11.427.694.694,0,0,1,.945-.373.576.576,0,0,1,.257.2l1.518,1.747a.4.4,0,0,0,.487.115l6.645-3.007c.029-.029.057-.029.086-.086a.7.7,0,0,1,1.088,0,13.721,13.721,0,0,1,3.207,9.852l-1.289,18.271a.794.794,0,0,1-.745.659Zm-7.732-1.432h7.074l1.26-17.613a12.266,12.266,0,0,0-2.463-8.334l-2.663,1.2a3.4,3.4,0,0,1,2.721,3.293v14.606a3.325,3.325,0,0,1-1.117,2.492Zm-3.608-24.343a24.375,24.375,0,0,0-1.489,9.709l.515,9.651,3.723-3.379V185.328a3.192,3.192,0,0,1,.458-1.69l-.315.143a1.854,1.854,0,0,1-2.176-.487Zm0,0" transform="translate(-267.334 -159.289)" fill="#014181"/>
        <path id="Path_1622" data-name="Path 1622" d="M31.293,100.971a6.649,6.649,0,0,1-6.645-6.645.709.709,0,0,1,.716-.716h2.263a1.16,1.16,0,0,0,.859-.4l.229-.286a2.161,2.161,0,0,1,1.317-2.749,2.467,2.467,0,0,1,1.117-.086l.2-.229a2.24,2.24,0,0,1,1.69-.773,9.555,9.555,0,0,0,3.78-.687.714.714,0,0,1,.945.343c.029.058.029.115.057.172a6.519,6.519,0,0,1,.115,1.289v4.1a6.655,6.655,0,0,1-6.644,6.673Zm-5.184-5.929a5.222,5.222,0,0,0,10.4-.716V90.088a13.03,13.03,0,0,1-3.494.487.721.721,0,0,0-.6.286l-.515.573a.7.7,0,0,1-.859.172.656.656,0,0,0-.315-.086.709.709,0,0,0-.716.716.85.85,0,0,0,.143.43.7.7,0,0,1-.058.888l-.544.63a2.533,2.533,0,0,1-1.919.888H26.109Zm0,0" transform="translate(-21.119 -81.433)" fill="#014181"/>
        <path id="Path_1623" data-name="Path 1623" d="M22.618,54.138H20.356a.715.715,0,0,1-.687-.487c-1.231-3.838-1.088-6.759.373-8.649a5.951,5.951,0,0,1,4.5-2.119,7.7,7.7,0,0,1,7.675-1.948,4.056,4.056,0,0,1,2.864,3.981,4.185,4.185,0,0,1-2.635,3.952,11.5,11.5,0,0,1-4.381.8.72.72,0,0,0-.6.286l-.516.573a.7.7,0,0,1-.859.172.654.654,0,0,0-.315-.086.709.709,0,0,0-.716.716.85.85,0,0,0,.143.43.7.7,0,0,1-.058.888l-.544.63a2.733,2.733,0,0,1-1.976.859ZM20.9,52.706h1.718a1.16,1.16,0,0,0,.859-.4l.229-.286a2.161,2.161,0,0,1,1.318-2.749,2.465,2.465,0,0,1,1.116-.086l.2-.229a2.241,2.241,0,0,1,1.69-.773,9.555,9.555,0,0,0,3.78-.687,2.731,2.731,0,0,0,1.8-2.635,2.633,2.633,0,0,0-1.891-2.635,6.207,6.207,0,0,0-6.3,1.747.7.7,0,0,1-.6.258A4.8,4.8,0,0,0,21.158,45.8c-1.06,1.489-1.175,3.78-.258,6.9Zm0,0" transform="translate(-16.139 -40.529)" fill="#014181"/>
        <path id="Path_1624" data-name="Path 1624" d="M327.092,164.557a1.844,1.844,0,0,1-1.4-.63l-1.518-1.747a1.517,1.517,0,0,1,.172-2.176,2.451,2.451,0,0,1,.458-.286l8.019-3.093a1.483,1.483,0,0,1,1.919.859l.687,1.747a1.736,1.736,0,0,1-.888,2.177l-6.644,3.007a2.8,2.8,0,0,1-.8.143Zm-1.8-3.523a.1.1,0,0,0-.058.143.028.028,0,0,0,.029.029l1.518,1.747a.4.4,0,0,0,.487.115l6.644-3.007a.253.253,0,0,0,.143-.343l-.687-1.747c0-.029-.029-.029-.057-.029Zm0,0" transform="translate(-277.425 -139.865)" fill="#014181"/>
        <path id="Path_1625" data-name="Path 1625" d="M314.293,101.15a6.649,6.649,0,0,1-6.645-6.645v-4.1a6.518,6.518,0,0,1,.115-1.289.729.729,0,0,1,.831-.573.408.408,0,0,1,.172.057,9.556,9.556,0,0,0,3.78.687,2.24,2.24,0,0,1,1.69.773l.2.229a2.181,2.181,0,0,1,2.548,1.69,1.967,1.967,0,0,1-.086,1.146l.229.286a1.075,1.075,0,0,0,.859.4h2.263a.709.709,0,0,1,.716.716,6.649,6.649,0,0,1-6.672,6.616Zm-5.213-10.883v4.238a5.223,5.223,0,0,0,10.4.716h-1.49a2.447,2.447,0,0,1-1.919-.888l-.544-.63a.778.778,0,0,1-.057-.888.725.725,0,0,0-.172-1,.772.772,0,0,0-.745-.057.7.7,0,0,1-.859-.172l-.515-.573a.807.807,0,0,0-.6-.286,12.088,12.088,0,0,1-3.494-.458Zm0,0" transform="translate(-263.595 -81.613)" fill="#014181"/>
        <path id="Path_1626" data-name="Path 1626" d="M307.742,53.768h-2.263a2.447,2.447,0,0,1-1.919-.888l-.544-.63a.778.778,0,0,1-.057-.888.725.725,0,0,0-.172-1,.772.772,0,0,0-.745-.057.7.7,0,0,1-.859-.172l-.515-.573a.807.807,0,0,0-.6-.286,11.073,11.073,0,0,1-4.382-.831,4.185,4.185,0,0,1-2.635-3.952,4.021,4.021,0,0,1,2.864-3.98,7.632,7.632,0,0,1,7.675,1.947,6.056,6.056,0,0,1,4.5,2.119c1.46,1.89,1.6,4.812.372,8.649a.782.782,0,0,1-.716.544Zm-3.35-2.09.229.286a1.075,1.075,0,0,0,.859.4H307.2c.917-3.121.8-5.412-.286-6.844a4.715,4.715,0,0,0-3.665-1.575.78.78,0,0,1-.6-.258,6.091,6.091,0,0,0-6.3-1.747,2.633,2.633,0,0,0-1.891,2.635,2.745,2.745,0,0,0,1.8,2.635,9.545,9.545,0,0,0,3.78.687,2.239,2.239,0,0,1,1.69.774l.2.229a2.181,2.181,0,0,1,2.548,1.69,1.8,1.8,0,0,1-.086,1.088Zm0,0" transform="translate(-251.088 -40.159)" fill="#014181"/>
        <path id="Path_1627" data-name="Path 1627" d="M331.048,391.877H320.509a.721.721,0,0,1-.716-.687l-.945-15.951a.8.8,0,0,1,.229-.573l2.95-2.692a.777.777,0,0,1,.487-.172h9.594a.709.709,0,0,1,.716.716v.057l-1.089,18.615a.678.678,0,0,1-.687.687Zm-9.852-1.432h9.164l1-17.183H322.8l-2.491,2.263Zm0,0" transform="translate(-273.191 -324.312)" fill="#014181"/>
        <path id="Path_1628" data-name="Path 1628" d="M21.582,392.047H11.043a.722.722,0,0,1-.716-.687L9.239,372.745A.688.688,0,0,1,9.9,372H22.671a.709.709,0,0,1,.716.716v.057L22.3,391.388a.717.717,0,0,1-.716.659Zm-9.852-1.432h9.164l1-17.183H10.728Zm0,0" transform="translate(-7.915 -324.482)" fill="#014181"/>
        <path id="Path_1629" data-name="Path 1629" d="M177.991,157.7a2.141,2.141,0,0,1-1.575-.659l-3.437-3.437a2.222,2.222,0,0,1-.115-3.15,2.25,2.25,0,0,1,3.15-.115l.115.115,1.862,1.861,4.9-4.9a2.229,2.229,0,0,1,3.15,3.15l-6.472,6.472A2.141,2.141,0,0,1,177.991,157.7Zm-3.408-6.444a.8.8,0,0,0-.8.8.851.851,0,0,0,.229.573l3.437,3.437a.811.811,0,0,0,1.146,0l6.444-6.5a.841.841,0,0,0-.057-1.146.823.823,0,0,0-1.06,0l-5.413,5.413a.69.69,0,0,1-.515.2.822.822,0,0,1-.516-.2l-2.348-2.349A.783.783,0,0,0,174.583,151.253Zm0,0" transform="translate(-147.599 -131.544)" fill="#014181"/>
        <path id="Path_1630" data-name="Path 1630" d="M162.012,149.123A8.363,8.363,0,1,1,168.083,135a.717.717,0,0,1-.029,1l-.029.029-.058.057-5.413,5.413a.69.69,0,0,1-.515.2.822.822,0,0,1-.516-.2l-2.348-2.348a.811.811,0,0,0-1.2,1.088l.058.058,3.437,3.437a.812.812,0,0,0,1.146,0l6.071-6.072a.692.692,0,0,1,1,0,.672.672,0,0,1,.172.258,8.379,8.379,0,0,1-5.012,10.74,9.622,9.622,0,0,1-2.835.458Zm0-15.322a6.931,6.931,0,1,0,6.93,6.931,5.962,5.962,0,0,0-.115-1.232l-5.212,5.212a2.247,2.247,0,0,1-3.15,0l-3.437-3.437a2.222,2.222,0,0,1-.115-3.15,2.249,2.249,0,0,1,3.15-.114l.115.114,1.861,1.862,4.5-4.5a6.922,6.922,0,0,0-4.525-1.69Zm0,0" transform="translate(-131.647 -119.19)" fill="#014181"/>
        <path id="Path_1631" data-name="Path 1631" d="M19.3,503.432H.767a.716.716,0,0,1,0-1.432H19.3a.716.716,0,0,1,0,1.432Zm0,0" transform="translate(-0.044 -435.867)" fill="#014181"/>
        <path id="Path_1632" data-name="Path 1632" d="M158.428,503.432h-2.864a.716.716,0,0,1,0-1.432h2.864a.716.716,0,0,1,0,1.432Zm0,0" transform="translate(-132.675 -435.867)" fill="#014181"/>
        <path id="Path_1633" data-name="Path 1633" d="M319.265,503.432h-18.1a.716.716,0,0,1,0-1.432h18.1a.716.716,0,0,1,0,1.432Zm0,0" transform="translate(-257.428 -435.867)" fill="#014181"/>
        <path id="Path_1634" data-name="Path 1634" d="M262.689,231.76a3.323,3.323,0,0,1-2.491-1.116,3.357,3.357,0,0,1,.229-4.754l12.114-10.968V201.8a3.379,3.379,0,1,1,6.759-.057v14.663a3.324,3.324,0,0,1-1.116,2.492l-13.231,11.971a3.256,3.256,0,0,1-2.263.888Zm-1.432-2.09a1.948,1.948,0,0,0,2.75.143l13.231-11.971a1.951,1.951,0,0,0,.63-1.432V201.8a1.933,1.933,0,0,0-3.866-.029v13.46a.783.783,0,0,1-.229.544l-12.343,11.2A1.856,1.856,0,0,0,261.257,229.669Zm0,0" transform="translate(-222.187 -175.737)" fill="#014181"/>
        <path id="Path_1635" data-name="Path 1635" d="M262.629,384.358a3.379,3.379,0,0,1-3.379-3.351,3.323,3.323,0,0,1,1.117-2.491l2.033-1.833a.693.693,0,0,1,1,.057l3.58,3.924a.693.693,0,0,1-.058,1l-2.033,1.832A3.364,3.364,0,0,1,262.629,384.358Zm.2-6.157-1.49,1.346a1.948,1.948,0,0,0,2.577,2.921l.029-.029,1.517-1.375Zm0,0" transform="translate(-222.127 -328.335)" fill="#014181"/>
        <path id="Path_1636" data-name="Path 1636" d="M50.2,222.785a3.067,3.067,0,0,1-.516-.029l-17.641-2.577a3.586,3.586,0,0,1-2.577-1.8l-7.732-14.52a3.466,3.466,0,0,1,6.1-3.293.028.028,0,0,0,.029.029l6.93,12.944,15.894,2.32a3.484,3.484,0,0,1-.487,6.931ZM24.823,200.16a2.041,2.041,0,0,0-2.033,2.033,2.092,2.092,0,0,0,.229.945l7.732,14.52a2.027,2.027,0,0,0,1.518,1.059L49.911,221.3a2.041,2.041,0,1,0,.6-4.038L34.246,214.88a.645.645,0,0,1-.515-.372l-7.1-13.26a2.085,2.085,0,0,0-1.2-1,2.046,2.046,0,0,0-.6-.086Zm0,0" transform="translate(-18.258 -176.04)" fill="#014181"/>
        <path id="Path_1637" data-name="Path 1637" d="M14.757,208.055H2.041a.717.717,0,0,1-.716-.659L.036,189.125a13.855,13.855,0,0,1,3.179-9.88.7.7,0,0,1,1-.086l.086.086.086.086,6.645,3.007a.4.4,0,0,0,.487-.114l1.518-1.747a.721.721,0,0,1,1-.086.888.888,0,0,1,.2.258,25.62,25.62,0,0,1,2.033,11.426l-.2,3.9a.747.747,0,0,1-.744.687.669.669,0,0,1-.6-.372L8.37,184.313a2.037,2.037,0,0,0-3.608,1.89v.029l7.732,14.52a2.027,2.027,0,0,0,1.518,1.059l1.117.172a.694.694,0,0,1,.6.744l-.257,4.639a.744.744,0,0,1-.716.687ZM2.7,206.623h11.37l.172-3.322-.458-.058a3.586,3.586,0,0,1-2.577-1.8l-7.732-14.52a3.483,3.483,0,0,1,1.432-4.7,3.4,3.4,0,0,1,1.489-.4l-2.52-1.146a12.269,12.269,0,0,0-2.463,8.334Zm6.587-23.541a6.153,6.153,0,0,1,.373.544l5.155,9.68.086-1.317a23.891,23.891,0,0,0-1.49-9.709l-.744.859a1.9,1.9,0,0,1-2.176.487Zm0,0" transform="translate(-0.001 -159.106)" fill="#014181"/>
        <path id="Path_1638" data-name="Path 1638" d="M199.355,322.857a3.065,3.065,0,0,1-.516-.029l-2.835-.4a.707.707,0,0,1-.6-.8l.773-5.47a.707.707,0,0,1,.8-.6l2.864.43a3.452,3.452,0,0,1-.487,6.873Zm-2.434-1.776,2.148.315a2.041,2.041,0,0,0,.6-4.038l-2.148-.315Zm0,0" transform="translate(-167.415 -276.112)" fill="#014181"/>
      </g>
    </g>
    <path id="Path_1639" data-name="Path 1639" d="M54.694,53.043H50.522a.522.522,0,1,1,0-1.043h4.172a.522.522,0,0,1,0,1.043Zm0,0" transform="translate(606.262 2345.781)" fill="#014181"/>
    <path id="Path_1640" data-name="Path 1640" d="M66.522,41.215A.522.522,0,0,1,66,40.694V36.522a.522.522,0,0,1,1.043,0v4.172A.522.522,0,0,1,66.522,41.215Zm0,0" transform="translate(592.348 2359.694)" fill="#014181"/>
    <path id="Path_1641" data-name="Path 1641" d="M22.694,93.043H18.522a.522.522,0,0,1,0-1.043h4.172a.522.522,0,0,1,0,1.043Zm0,0" transform="translate(634.089 2310.996)" fill="#014181"/>
    <path id="Path_1642" data-name="Path 1642" d="M34.522,81.215A.522.522,0,0,1,34,80.694V76.522a.522.522,0,0,1,1.043,0v4.172A.522.522,0,0,1,34.522,81.215Zm0,0" transform="translate(620.176 2324.91)" fill="#014181"/>
  </g>
</svg>
